<svg version="1.1"
	 xmlns="http://www.w3.org/2000/svg" xmlns:xlink="http://www.w3.org/1999/xlink" xmlns:a="http://ns.adobe.com/AdobeSVGViewerExtensions/3.0/"
	 x="0px" y="0px" width="292px" height="262px" viewBox="-14.394 -13.197 292 262" enable-background="new -14.394 -13.197 292 262"
	 xml:space="preserve">
<defs>
</defs>
<g>
	<g>
		<path fill-rule="evenodd" clip-rule="evenodd" fill="#3D4170" d="M106,52.32c16.273,2.572,30.799,7.105,43,14.5
			c5.853,3.546,10.992,7.894,16.5,12c5.523,4.118,11.389,7.217,17.5,11c19.753,12.228,38.68,27.22,65,35.5
			c4.142,1.303,9.373,1.89,9.5,4.5c0.228,4.692-18.902,5.348-23,6c-9.81,1.562-16.379,3.396-25.5,3.5
			c12.997,5.282,29.759,5.628,46,9.5c3.746,0.893,11.926,3.544,12,6.5c0.091,3.617-8.576,6.105-13,6.5c-8.964,0.8-18.324-1.133-28-2
			c-17.531-1.57-34.463-3.603-54-6c-7.21-0.885-21.659-1.876-24.5-5c-2.386-2.623-1.815-8.259-3.5-12
			c-2.337-5.189-9.498-9.796-15-14c-8.583-6.56-16.274-12.328-22-21.5c-1.865-2.987-4.074-6.892-4.5-10
			c-0.556-4.049,2.46-9.467-2-13.5c-7.427,3.733-1.539,15.59,0.5,20c5.552,12.007,14.761,20.371,25.5,28.5
			c5.173,3.915,12.529,7.646,14.5,12.5c1.396,3.438,0.771,6.864,2,9.5c1.311,2.81,2.97,4.126,7,6c-7.56,2.94-15.826,5.174-25,6.5
			c-2.333,16.388-8.658,42.655-2,60.5c1.48,3.968,4.448,7.052,5,11c-5.02,1.695-7.479-1.842-12.5-1.5c-3.74,0.255-6.158,3.555-9,3.5
			c-2.784-0.054-3.529-2.64-6-3c-2.288-0.141-5.015,2.228-8.5,1.5c-0.329-0.068-1.421-0.999-1.5-1c-3.323-0.038-5.048,1.966-7,1.5
			c-1.948-0.465-2.943-1.229-3.5-3.5c-1.285-1.215-5.361,0.361-6-1.5c3.01-3.42,7.967-3.873,12-5.5c8.625-3.479,12.22-6.978,13.5-19
			c0.468-4.397,1.023-9.657,1-14c-0.05-9.324-3.866-17.04-3.5-27.5c-19.956-3.979-30.876-10.768-42-23
			c-5.081-5.588-8.865-12.336-13-19.5c-7-12.127-11.339-30.313-5-46.5c1.883-4.809,6.969-10.181,7-15.5
			c0.04-6.757-4.896-11.614-13.5-10.5c-8.63,1.117-18.811,9.403-30.5,4.5c-0.048-20.061,28.598-14.538,38-26
			c3.545-4.322,3.987-9.432,7-13.5c9.826-13.269,36.009-17.614,49-4c3.486,3.653,6.522,9.79,8,15.5
			C104.187,32.271,102.841,42.473,106,52.32z M62.5,32.82c3.458-0.152,7.377-4.487,7-7c-1.03-6.869-15.062-4.04-14,2.5
			C57.242,30.75,59.289,32.961,62.5,32.82z M107,162.82c3.029,10.855-0.465,20.25-1.5,31.5c-0.995,10.814-2.647,23.461,2,28.5
			c2.841-1.944,4.94-5.117,5.5-9c1.656-11.483-0.025-27.36,0-41c0.005-3.05,1.018-7.411,0.5-10.5
			C111.014,162.167,108.913,162.399,107,162.82z"/>
		<path fill-rule="evenodd" clip-rule="evenodd" d="M60,24.32c5.431-2.596,6.535,6.634,1,6C58.042,29.981,56.955,25.775,60,24.32z"
			/>
	</g>
</g>
</svg>
